PathFileType	4	(X/Y/Z)	Walk3.trc
DataRate	CameraRate	NumFrames	NumMarkers	Units	OrigDataRate	OrigDataStartFrame	OrigNumFrames
200.000000	200.000000	8	60	mm	200.000000	439	799
Frame#	Times		LToe		RCAR		RWRU		LLFC		RWRR		LFA1		RACR1		LUA1		STRN		LACR1		LElbow		RTH3		RLFC		LCAR		RFA1		RTB2		RToe		RFHD		RMT1		RMFC		LWRU		RTH2		RTB3		RMT5		LPSI		C7		LWRR		RPSI		RTB1		LTB1		RCAL		LTH3		LFHD		RTB4		LTB4		RASI		LTH4		RMMAL		LMT1		RLMAL		CLAV		LMFC		LTH2		LBHD		RBHD		RElbow		LTB2		LTB3		RUA1		RBack		LMMAL		RTH4		T10		LTH1		LCAL		RTH1		LMT5		LElbowM		RElbowM		LLMAL
			X1	Y1	Z1	X2	Y2	Z2	X3	Y3	Z3	X4	Y4	Z4	X5	Y5	Z5	X6	Y6	Z6	X7	Y7	Z7	X8	Y8	Z8	X9	Y9	Z9	X10	Y10	Z10	X11	Y11	Z11	X12	Y12	Z12	X13	Y13	Z13	X14	Y14	Z14	X15	Y15	Z15	X16	Y16	Z16	X17	Y17	Z17	X18	Y18	Z18	X19	Y19	Z19	X20	Y20	Z20	X21	Y21	Z21	X22	Y22	Z22	X23	Y23	Z23	X24	Y24	Z24	X25	Y25	Z25	X26	Y26	Z26	X27	Y27	Z27	X28	Y28	Z28	X29	Y29	Z29	X30	Y30	Z30	X31	Y31	Z31	X32	Y32	Z32	X33	Y33	Z33	X34	Y34	Z34	X35	Y35	Z35	X36	Y36	Z36	X37	Y37	Z37	X38	Y38	Z38	X39	Y39	Z39	X40	Y40	Z40	X41	Y41	Z41	X42	Y42	Z42	X43	Y43	Z43	X44	Y44	Z44	X45	Y45	Z45	X46	Y46	Z46	X47	Y47	Z47	X48	Y48	Z48	X49	Y49	Z49	X50	Y50	Z50	X51	Y51	Z51	X52	Y52	Z52	X53	Y53	Z53	X54	Y54	Z54	X55	Y55	Z55	X56	Y56	Z56	X57	Y57	Z57	X58	Y58	Z58	X59	Y59	Z59	X60	Y60	Z60

439	2.195	-205.68	34.639	-33.149	-340.38	865.78	337.46	-402.37	902.31	340.48	-422.42	507.99	-154.45	-341.53	911.51	277.3	-438.05	1049.5	-320.28	-459.43	1512.4	178.42	-478.63	1350.8	-271.39	-335.56	1306.8	-7.5847	-464.82	1536.4	-193.49	-517.67	1182.3	-315.37	-498.13	640.95	205.23	-485.53	521.72	212.08	-399.15	884.06	-329.07	-397.83	1047	309.45	-616.47	332.96	175.06	-700.76	63.949	117.74	-343.38	1733.8	59.48	-722.96	107.12	97.092	-465.74	501.17	64.464	-470.64	920.56	-331	-455.26	736.35	213.9	-677.23	285.72	101.15	-780.75	123.37	174.46	-624.23	1085.2	-79.904	-569.96	1567.6	0.098959	-396.35	923.79	-273.54	-632.85	1073.8	28.418	-535.78	382.64	125.24	-380.5	367.44	-43.387	-868.35	269.95	78.753	-417.61	656.01	-182.65	-340.23	1738.6	-45.558	-607.77	333.08	113.6	-385.67	282.62	-36.728	-428.68	1047.2	157.78	-430.33	739.63	-203	-758.11	238.35	47.14	-262.61	47.391	-20.489	-812.43	249.65	132.39	-401.94	1481.4	-18.428	-423.79	511.09	-13.101	-373.72	752.71	-191.9	-501.37	1698	-71.562	-509.97	1694.7	70.219	-491.76	1171.3	302.36	-360.57	276.55	-94.543	-387.15	196.73	-30.729	-461.74	1332.1	253.84	-625.12	1445.3	120.56	-404.8	97.501	11.15	-514.46	723.44	206.73	-612.38	1211.2	-20.845	-444.08	824.23	-220.52	-487.37	43.337	-49.458	-528.93	810.36	206.32	-304.03	27.112	-114.2	-554.77	1157.9	-232.13	-525.36	1141.6	214.34	-421.94	68.052	-87.038
440	2.2	-205.61	34.382	-33.215	-337.76	865.92	337.53	-399.64	902.64	340.47	-421.12	508.03	-154.87	-338.66	911.67	277.36	-431.07	1050.8	-320.86	-454.76	1512.8	178.29	-472.98	1351.5	-271.85	-330.65	1307.2	-7.6404	-459.57	1537.1	-193.7	-511.52	1183.1	-316.29	-489.09	641.73	205.02	-475.19	522.93	212.11	-390.96	885.77	-329.63	-394.66	1047.3	309.41	-605.25	333.82	175.13	-687.3	65.166	117.81	-338.38	1734.4	59.25	-709.98	108.07	97.136	-455.41	502.31	64.584	-462.79	921.52	-331.52	-447.4	737.65	213.9	-665.77	286.31	101.18	-767.74	123.88	174.62	-619.47	1085.8	-80.029	-564.92	1568.2	-0.29156	-388.54	925.45	-274.08	-628.01	1074.4	28.276	-524.61	383.65	125.33	-379.55	367.39	-43.792	-857.08	269.3	78.885	-415.26	656.16	-183.06	-335.18	1739.2	-45.776	-596.47	333.87	113.7	-384.97	282.57	-37.009	-423.22	1048.1	157.45	-427.37	739.88	-203.36	-746.53	238.68	47.105	-262.56	47.392	-20.547	-800.79	249.6	132.48	-396.94	1481.9	-18.579	-422.36	511.19	-13.47	-370.54	752.48	-192.42	-496.31	1698.5	-71.856	-504.97	1695.2	69.923	-488.27	1171.8	302.13	-360.09	276.38	-94.923	-386.72	196.67	-30.955	-457.72	1332.5	253.69	-620.37	1445.9	119.94	-404.68	97.561	11.078	-506.36	724.03	206.52	-607.49	1211.8	-21.256	-440.46	824.62	-220.85	-487.37	43.358	-49.472	-521.82	810.79	206.04	-304.05	27.051	-114.31	-548.74	1158.4	-233.15	-521.79	1142.2	214.09	-421.96	68.048	-87.051
441	2.205	-205.54	34.139	-33.28	-335.15	866.08	337.62	-396.93	902.95	340.45	-419.88	508.07	-155.27	-335.78	911.83	277.44	-424.09	1052	-321.43	-450.09	1513.3	178.15	-467.34	1352.3	-272.29	-325.76	1307.7	-7.688	-454.34	1537.7	-193.9	-505.37	1183.8	-317.16	-480.11	642.52	204.82	-464.92	524.13	212.13	-382.78	887.48	-330.2	-391.53	1047.7	309.4	-593.94	334.52	175.2	-673.51	66.188	117.78	-333.38	1734.9	59.04	-696.71	108.79	97.124	-445.16	503.47	64.68	-454.95	922.48	-332.01	-439.6	738.96	213.91	-654.2	286.72	101.21	-754.42	124.09	174.75	-614.72	1086.3	-80.127	-559.9	1568.8	-0.66413	-380.73	927.09	-274.62	-623.19	1075	28.168	-513.43	384.61	125.4	-378.6	367.34	-44.187	-845.66	268.28	79.08	-412.96	656.28	-183.43	-330.14	1739.8	-45.972	-585.08	334.55	113.78	-384.27	282.52	-37.288	-417.78	1048.9	157.09	-424.46	740.1	-203.69	-734.79	238.76	47.083	-262.5	47.392	-20.611	-788.97	249.21	132.6	-391.97	1482.3	-18.718	-420.91	511.29	-13.819	-367.42	752.21	-192.95	-491.26	1699	-72.13	-499.97	1695.8	69.644	-484.84	1172.3	301.91	-359.64	276.22	-95.315	-386.27	196.61	-31.187	-453.74	1332.9	253.56	-615.63	1446.4	119.36	-404.56	97.614	11.023	-498.31	724.62	206.29	-602.62	1212.4	-21.646	-436.9	824.96	-221.16	-487.37	43.383	-49.474	-514.74	811.22	205.75	-304.06	26.988	-114.42	-542.67	1158.9	-234.11	-518.24	1142.8	213.82	-421.99	68.049	-87.055
442	2.21	-205.47	33.91	-33.347	-332.53	866.26	337.74	-394.24	903.25	340.44	-418.69	508.1	-155.66	-332.89	912.01	277.54	-417.11	1053.2	-321.97	-445.43	1513.7	178.03	-461.69	1353	-272.7	-320.9	1308.1	-7.732	-449.15	1538.3	-194.08	-499.21	1184.5	-317.98	-471.19	643.33	204.63	-454.71	525.31	212.12	-374.61	889.19	-330.77	-388.44	1047.9	309.4	-582.53	335.08	175.27	-659.39	67.015	117.69	-328.39	1735.4	58.85	-683.17	109.28	97.07	-435	504.64	64.749	-447.11	923.44	-332.49	-431.86	740.26	213.91	-642.5	286.95	101.24	-740.83	124	174.84	-609.99	1086.8	-80.201	-554.91	1569.3	-1.0197	-372.92	928.71	-275.15	-618.37	1075.6	28.09	-502.24	385.51	125.44	-377.67	367.29	-44.572	-834.09	266.89	79.329	-410.71	656.37	-183.78	-325.09	1740.3	-46.146	-573.62	335.12	113.84	-383.57	282.46	-37.567	-412.37	1049.7	156.68	-421.62	740.29	-204	-722.89	238.58	47.074	-262.44	47.391	-20.682	-776.98	248.48	132.75	-387.01	1482.8	-18.847	-419.43	511.38	-14.152	-364.35	751.9	-193.49	-486.2	1699.6	-72.383	-494.98	1696.2	69.381	-481.46	1172.8	301.69	-359.22	276.07	-95.714	-385.81	196.55	-31.422	-449.81	1333.3	253.45	-610.9	1447	118.81	-404.43	97.66	10.981	-490.32	725.23	206.07	-597.76	1213	-22.014	-433.4	825.27	-221.45	-487.36	43.41	-49.465	-507.71	811.64	205.47	-304.08	26.923	-114.54	-536.58	1159.3	-235.02	-514.72	1143.4	213.55	-422.01	68.052	-87.051
443	2.215	-205.41	33.695	-33.414	-329.9	866.45	337.87	-391.55	903.54	340.41	-417.56	508.12	-156.03	-329.98	912.19	277.66	-410.14	1054.4	-322.49	-440.79	1514.1	177.91	-456.05	1353.7	-273.09	-316.06	1308.5	-7.7773	-443.98	1538.9	-194.24	-493.05	1185.3	-318.76	-462.34	644.15	204.44	-444.57	526.48	212.09	-366.46	890.89	-331.34	-385.39	1048.2	309.42	-571.02	335.48	175.32	-644.98	67.652	117.55	-323.39	1735.8	58.68	-669.38	109.55	96.989	-424.93	505.83	64.789	-439.27	924.39	-332.95	-424.19	741.56	213.92	-630.69	287	101.26	-726.95	123.64	174.92	-605.27	1087.2	-80.256	-549.94	1569.9	-1.3592	-365.11	930.3	-275.67	-613.55	1076.2	28.039	-491.05	386.37	125.46	-376.76	367.24	-44.944	-822.37	265.15	79.624	-408.5	656.44	-184.1	-320.05	1740.7	-46.3	-562.08	335.59	113.86	-382.88	282.41	-37.844	-406.99	1050.5	156.24	-418.82	740.45	-204.28	-710.84	238.14	47.079	-262.38	47.389	-20.759	-764.82	247.43	132.93	-382.07	1483.2	-18.966	-417.92	511.47	-14.472	-361.34	751.57	-194.02	-481.15	1700	-72.617	-490	1696.7	69.134	-478.14	1173.3	301.48	-358.82	275.92	-96.117	-385.33	196.49	-31.659	-445.93	1333.7	253.35	-606.17	1447.5	118.3	-404.31	97.7	10.95	-482.38	725.85	205.85	-592.92	1213.5	-22.36	-429.96	825.55	-221.73	-487.36	43.439	-49.447	-500.71	812.06	205.18	-304.1	26.856	-114.66	-530.46	1159.7	-235.88	-511.21	1143.9	213.27	-422.04	68.058	-87.041
444	2.22	-205.35	33.496	-33.483	-327.28	866.66	338.02	-388.88	903.8	340.39	-416.46	508.15	-156.4	-327.07	912.37	277.79	-403.17	1055.6	-323	-436.16	1514.4	177.8	-450.41	1354.4	-273.45	-311.24	1308.8	-7.8283	-438.84	1539.5	-194.39	-486.89	1185.9	-319.5	-453.56	644.99	204.27	-434.5	527.61	212.03	-358.33	892.58	-331.92	-382.36	1048.5	309.45	-559.43	335.73	175.36	-630.28	68.105	117.39	-318.39	1736.2	58.531	-655.33	109.61	96.898	-414.96	507.04	64.8	-431.44	925.33	-333.39	-416.57	742.85	213.91	-618.77	286.86	101.28	-712.82	123.02	174.99	-600.55	1087.6	-80.292	-544.99	1570.4	-1.6834	-357.31	931.88	-276.2	-608.74	1076.7	28.013	-479.85	387.18	125.45	-375.87	367.19	-45.303	-810.49	263.04	79.955	-406.33	656.49	-184.4	-315.01	1741.1	-46.431	-550.46	335.95	113.86	-382.19	282.35	-38.119	-401.65	1051.2	155.75	-416.06	740.59	-204.54	-698.63	237.44	47.1	-262.32	47.386	-20.842	-752.5	246.06	133.13	-377.15	1483.5	-19.078	-416.39	511.55	-14.783	-358.37	751.21	-194.55	-476.09	1700.5	-72.832	-485.01	1697.1	68.901	-474.87	1173.7	301.26	-358.44	275.78	-96.522	-384.85	196.44	-31.896	-442.08	1334.1	253.26	-601.45	1448	117.81	-404.18	97.735	10.927	-474.49	726.47	205.64	-588.08	1214	-22.686	-426.56	825.8	-221.99	-487.36	43.47	-49.421	-493.76	812.47	204.89	-304.12	26.786	-114.78	-524.32	1160.2	-236.68	-507.73	1144.4	212.99	-422.07	68.066	-87.026
445	2.225	-205.3	33.312	-33.553	-324.65	866.88	338.18	-386.22	904.05	340.36	-415.4	508.17	-156.76	-324.15	912.55	277.95	-396.2	1056.7	-323.49	-431.54	1514.7	177.69	-444.78	1355.1	-273.78	-306.45	1309.2	-7.889	-433.73	1540.1	-194.52	-480.73	1186.6	-320.19	-444.84	645.83	204.12	-424.5	528.72	211.95	-350.21	894.25	-332.51	-379.37	1048.8	309.51	-547.74	335.84	175.39	-615.3	68.383	117.23	-313.39	1736.5	58.404	-641.04	109.45	96.81	-405.09	508.26	64.782	-423.62	926.26	-333.81	-409.01	744.14	213.91	-606.74	286.54	101.31	-698.44	122.16	175.07	-595.85	1088	-80.312	-540.07	1570.8	-1.9927	-349.51	933.42	-276.71	-603.93	1077.1	28.008	-468.65	387.95	125.41	-375	367.14	-45.648	-798.44	260.6	80.315	-404.18	656.52	-184.68	-309.96	1741.5	-46.542	-538.78	336.2	113.82	-381.51	282.29	-38.39	-396.35	1051.8	155.23	-413.34	740.71	-204.78	-686.26	236.48	47.141	-262.27	47.383	-20.928	-740.01	244.39	133.36	-372.24	1483.9	-19.184	-414.84	511.61	-15.085	-355.45	750.84	-195.05	-471.03	1700.9	-73.029	-480.04	1697.5	68.682	-471.64	1174.1	301.05	-358.07	275.64	-96.924	-384.36	196.39	-32.13	-438.28	1334.4	253.19	-596.75	1448.4	117.34	-404.06	97.769	10.908	-466.67	727.1	205.44	-583.26	1214.4	-22.99	-423.19	826.03	-222.24	-487.36	43.503	-49.39	-486.84	812.87	204.61	-304.14	26.715	-114.9	-518.16	1160.5	-237.43	-504.26	1144.9	212.7	-422.09	68.075	-87.008
446	2.23	-205.25	33.143	-33.625	-322.02	867.1	338.37	-383.57	904.27	340.33	-414.38	508.19	-157.12	-321.23	912.73	278.13	-389.24	1057.8	-323.96	-426.93	1515	177.58	-439.15	1355.7	-274.09	-301.68	1309.5	-7.9625	-428.65	1540.7	-194.65	-474.56	1187.2	-320.84	-436.2	646.68	204	-414.55	529.8	211.84	-342.12	895.9	-333.09	-376.41	1049	309.58	-535.98	335.81	175.41	-600.06	68.494	117.08	-308.39	1736.8	58.298	-626.52	109.09	96.74	-395.34	509.5	64.738	-415.81	927.19	-334.22	-401.51	745.41	213.89	-594.6	286.05	101.33	-683.81	121.07	175.16	-591.15	1088.3	-80.318	-535.16	1571.3	-2.2879	-341.72	934.94	-277.23	-599.11	1077.6	28.023	-457.45	388.67	125.34	-374.16	367.09	-45.982	-786.24	257.81	80.696	-402.05	656.55	-184.95	-304.91	1741.8	-46.632	-527.02	336.35	113.74	-380.85	282.23	-38.656	-391.08	1052.4	154.67	-410.64	740.82	-204.99	-673.73	235.27	47.204	-262.21	47.381	-21.017	-727.35	242.42	133.6	-367.35	1484.2	-19.284	-413.29	511.67	-15.381	-352.56	750.45	-195.53	-465.98	1701.3	-73.209	-475.07	1697.9	68.478	-468.44	1174.5	300.84	-357.72	275.51	-97.32	-383.87	196.34	-32.36	-434.51	1334.7	253.13	-592.05	1448.9	116.9	-403.95	97.804	10.89	-458.9	727.74	205.27	-578.44	1214.8	-23.274	-419.84	826.23	-222.47	-487.35	43.537	-49.355	-479.96	813.28	204.35	-304.16	26.643	-115.02	-511.98	1160.9	-238.14	-500.81	1145.4	212.41	-422.12	68.085	-86.988
